<svg xmlns="http://www.w3.org/2000/svg" viewBox="0 0 1200 200" preserveAspectRatio="none">
  <defs>
    <linearGradient id="sky" x1="0" y1="0" x2="0" y2="1">
      <stop offset="0" stop-color="#0b1220"/>
      <stop offset="1" stop-color="#101827"/>
    </linearGradient>
  </defs>
  <rect width="1200" height="200" fill="url(#sky)"/>
  <path d="M0,150 C150,120 300,170 450,145 C600,120 750,170 900,145 C1050,120 1150,160 1200,140 L1200,200 L0,200 Z" fill="#f3f4f6" opacity="0.9"/>
  <g opacity="0.9">
    <path d="M150 150 L170 110 L190 150 Z" fill="#e5e7eb"/><rect x="168" y="150" width="4" height="16" fill="#d1d5db"/>
    <path d="M240 150 L260 105 L280 150 Z" fill="#e5e7eb"/><rect x="258" y="150" width="4" height="18" fill="#d1d5db"/>
    <path d="M1040 150 L1060 112 L1080 150 Z" fill="#e5e7eb"/><rect x="1058" y="150" width="4" height="16" fill="#d1d5db"/>
  </g>
  <g fill="#ffffff" opacity="0.55">
    <circle cx="120" cy="40" r="2"/><circle cx="260" cy="65" r="1.5"/><circle cx="410" cy="35" r="2"/>
    <circle cx="610" cy="55" r="1.5"/><circle cx="760" cy="30" r="2"/><circle cx="980" cy="60" r="1.5"/><circle cx="1120" cy="38" r="2"/>
  </g>
</svg>
